<svg xmlns="http://www.w3.org/2000/svg" role="img" viewBox="0 0 24 24" fill="none" stroke="currentColor" strokeWidth="1" strokeLinecap="round" strokeLinejoin="round" className="icon icon-strava">
  <title>Strava</title>
  <path d="M15.167 24a.5.5 0 0 1-.448-.279l-4.861-9.883a.499.499 0 0 1 .448-.72h2.93a.5.5 0 0 1 .449.28l1.479 3.033 1.457-3.03a.499.499 0 0 1 .45-.283H20a.5.5 0 0 1 .449.719l-4.833 9.883a.5.5 0 0 1-.449.28zm-4.059-9.883 4.058 8.247 4.033-8.247h-1.813l-1.768 3.678c-.083.173-.278.26-.45.283a.5.5 0 0 1-.449-.28l-1.796-3.681h-1.815z"/><path d="M17.07 14.117h-3.835a.501.501 0 0 1-.445-.271l-2.23-4.352-2.25 4.353a.502.502 0 0 1-.444.271H4a.498.498 0 0 1-.447-.723L10.114.278A.497.497 0 0 1 10.561 0h.001a.5.5 0 0 1 .447.277l6.51 13.117a.503.503 0 0 1-.449.723zm-3.529-1h2.723L10.559 1.621 4.81 13.117h2.751l2.557-4.945a.502.502 0 0 1 .444-.271h.001a.5.5 0 0 1 .444.271l2.534 4.945z"/>
</svg>